<?xml version="1.0" encoding="UTF-8" standalone="no"?>
<svg
   viewBox="0 0 414.51001 446.60102"
   version="1.1"
   id="svg427"
   sodipodi:docname="login.svg.2025_07_11_17_01_03.0.svg"
   width="414.51001"
   height="446.60101"
   inkscape:version="1.2.2 (732a01da63, 2022-12-09)"
   xmlns:inkscape="http://www.inkscape.org/namespaces/inkscape"
   xmlns:sodipodi="http://sodipodi.sourceforge.net/DTD/sodipodi-0.dtd"
   xmlns="http://www.w3.org/2000/svg"
   xmlns:svg="http://www.w3.org/2000/svg">
  <defs
     id="defs431" />
  <sodipodi:namedview
     id="namedview429"
     pagecolor="#505050"
     bordercolor="#eeeeee"
     borderopacity="1"
     inkscape:showpageshadow="0"
     inkscape:pageopacity="0"
     inkscape:pagecheckerboard="0"
     inkscape:deskcolor="#505050"
     showgrid="false"
     inkscape:zoom="0.63648966"
     inkscape:cx="-65.201374"
     inkscape:cy="102.90819"
     inkscape:window-width="1920"
     inkscape:window-height="991"
     inkscape:window-x="-9"
     inkscape:window-y="-9"
     inkscape:window-maximized="1"
     inkscape:current-layer="svg427" />
  <g
     id="g3496"
     transform="translate(-41.370818,-2.7804881)">
    <rect
       y="325.29373"
       width="396.99582"
       height="0.24626866"
       style="fill:#ebebeb;stroke-width:0.884388"
       id="rect2"
       x="51.502098" />
    <rect
       x="414.29074"
       y="341.14359"
       width="32.625671"
       height="0.24626866"
       style="fill:#ebebeb;stroke-width:0.985075"
       id="rect4" />
    <rect
       x="321.44745"
       y="343.82297"
       width="8.560298"
       height="0.24626866"
       style="fill:#ebebeb;stroke-width:0.985075"
       id="rect6" />
    <rect
       x="394.4021"
       y="332.00208"
       width="18.903584"
       height="0.24626866"
       style="fill:#ebebeb;stroke-width:0.985075"
       id="rect8" />
    <rect
       x="55.408356"
       y="333.65704"
       width="42.545372"
       height="0.24626866"
       style="fill:#ebebeb;stroke-width:0.985075"
       id="rect10" />
    <rect
       x="106.73074"
       y="333.65704"
       width="6.2355223"
       height="0.24626866"
       style="fill:#ebebeb;stroke-width:0.985075"
       id="rect12" />
    <rect
       x="133.23911"
       y="337.81403"
       width="92.281792"
       height="0.24626866"
       style="fill:#ebebeb;stroke-width:0.985075"
       id="rect14" />
    <path
       d="M 237.19403,281.35941 H 46.98597 a 5.6247761,5.6247761 0 0 1 -5.614925,-5.62478 V 8.3558251 A 5.6247761,5.6247761 0 0 1 46.98597,2.7803026 h 190.20806 a 5.6247761,5.6247761 0 0 1 5.62478,5.6247762 V 275.73463 a 5.6247761,5.6247761 0 0 1 -5.62478,5.62478 z M 46.98597,2.9773176 A 5.3785075,5.3785075 0 0 0 41.617314,8.3558251 V 275.73463 a 5.3785075,5.3785075 0 0 0 5.368656,5.37851 h 190.20806 a 5.3883582,5.3883582 0 0 0 5.37851,-5.37851 V 8.3558251 a 5.3883582,5.3883582 0 0 0 -5.37851,-5.3785075 z"
       style="fill:#ebebeb;stroke-width:0.985075"
       id="path16" />
    <path
       d="M 450.27552,281.35941 H 260.05761 a 5.6346269,5.6346269 0 0 1 -5.62477,-5.62478 V 8.3558251 a 5.6346269,5.6346269 0 0 1 5.62477,-5.5755225 h 190.21791 a 5.6247761,5.6247761 0 0 1 5.60508,5.5755225 V 275.73463 a 5.6247761,5.6247761 0 0 1 -5.60508,5.62478 z M 260.05761,2.9773176 a 5.3883582,5.3883582 0 0 0 -5.3785,5.3785075 V 275.73463 a 5.3883582,5.3883582 0 0 0 5.3785,5.37851 h 190.21791 a 5.3883582,5.3883582 0 0 0 5.37851,-5.37851 V 8.3558251 a 5.3883582,5.3883582 0 0 0 -5.37851,-5.3785075 z"
       style="fill:#ebebeb;stroke-width:0.985075"
       id="path18" />
    <path
       d="m 253.16209,104.06568 a 59.705373,59.705373 0 0 0 -8.58,-20.637317 l 7.38806,-8.924777 -15.76119,-15.761194 -8.92478,7.38806 a 59.784179,59.784179 0 0 0 -20.62746,-8.619403 l -1.08359,-11.495821 h -22.38089 l -1.08358,11.495821 a 59.65612,59.65612 0 0 0 -20.62747,8.58 l -8.92477,-7.38806 -15.7612,15.761194 7.38806,8.924777 a 59.705373,59.705373 0 0 0 -8.58,20.63731 l -11.50567,1.08359 v 22.33164 l 11.50567,1.08358 a 59.784179,59.784179 0 0 0 8.58,20.63731 l -7.46686,8.96418 15.76119,15.7612 8.92478,-7.38806 a 59.468955,59.468955 0 0 0 20.62746,8.58 l 1.08358,11.50567 h 22.3415 l 1.08358,-11.50567 a 59.597015,59.597015 0 0 0 20.63731,-8.58 l 8.92478,7.38806 15.76119,-15.7612 -7.38806,-8.92477 a 59.784179,59.784179 0 0 0 8.58,-20.63732 l 11.50567,-1.08358 v -22.33164 z m -28.56716,12.24447 a 30.241791,30.241791 0 1 1 -30.2418,-30.241787 30.23194,30.23194 0 0 1 30.25165,30.241787 z"
       style="fill:#e0e0e0;stroke-width:0.985075"
       id="path20" />
    <path
       d="m 317.23134,211.27135 0.73881,8.22537 h 16.04687 l 0.7782,-8.26477 a 42.929552,42.929552 0 0 0 14.82538,-6.15672 l 6.41283,5.30955 11.35791,-11.35791 -5.30955,-6.41284 a 42.821194,42.821194 0 0 0 6.15672,-14.82537 l 8.26477,-0.77821 v -16.00746 l -8.26477,-0.77821 a 42.821194,42.821194 0 0 0 -6.15672,-14.82537 l 5.30955,-6.41284 -11.35791,-11.34806 -6.41283,5.30955 a 42.76209,42.76209 0 0 0 -14.82538,-6.16656 l -0.7782,-8.26478 h -16.04687 l -0.77821,8.26478 a 42.840896,42.840896 0 0 0 -14.82537,6.16656 l -6.41284,-5.30955 -11.34806,11.34806 5.30955,6.41284 a 42.840896,42.840896 0 0 0 -6.16656,14.82537 l -8.26478,0.77821 v 16.04687 l 8.26478,0.7782 a 42.840896,42.840896 0 0 0 6.16656,14.82538 l -5.30955,6.41283 11.34806,11.35791 6.41284,-5.30955 a 43.008358,43.008358 0 0 0 14.86477,6.15672 z m 8.80657,-20.51911 a 21.730746,21.730746 0 1 1 21.7209,-21.67164 21.730746,21.730746 0 0 1 -21.7209,21.67164 z"
       style="fill:#ffffff;fill-opacity:1;stroke-width:0.985075"
       id="path22" />
    <path
       d="m 205.87552,292.83085 0.39403,4.21612 h 8.18597 l 0.40388,-4.20627 a 21.937612,21.937612 0 0 0 7.55552,-3.15224 l 3.27045,2.70896 5.79224,-5.78239 -2.70895,-3.27045 a 21.888358,21.888358 0 0 0 3.14238,-7.56537 l 4.21612,-0.39403 v -8.18597 l -4.21612,-0.39403 a 21.888358,21.888358 0 0 0 -3.14238,-7.56538 l 2.70895,-3.27044 -5.79224,-5.79224 -3.27045,2.70895 a 21.917911,21.917911 0 0 0 -7.55552,-3.14239 l -0.40388,-4.21612 h -8.18597 l -0.39403,4.21612 a 21.917911,21.917911 0 0 0 -7.55552,3.14239 l -3.27045,-2.70895 -5.79224,5.79224 2.70896,3.27044 a 21.671642,21.671642 0 0 0 -3.14239,7.56538 l -4.21612,0.39403 v 8.18597 l 4.21612,0.39403 a 21.671642,21.671642 0 0 0 3.14239,7.56537 l -2.70896,3.27045 5.79224,5.78239 3.27045,-2.70896 a 21.730746,21.730746 0 0 0 7.55552,3.14239 z m 4.49194,-10.46149 a 11.08209,11.08209 0 1 1 11.08209,-11.08209 11.08209,11.08209 0 0 1 -11.08209,11.08209 z"
       style="fill:#f0f0f0;stroke-width:0.985075"
       id="path24" />
    <path
       d="m 406.87314,269.89314 0.32507,3.46746 h 6.73791 l 0.32508,-3.46746 a 18.036716,18.036716 0 0 0 6.22567,-2.59075 l 2.68925,2.23612 4.76776,-4.76776 -2.23612,-2.68925 a 17.957911,17.957911 0 0 0 2.59075,-6.22567 l 3.46746,-0.32508 v -6.73791 l -3.46746,-0.32507 a 18.036716,18.036716 0 0 0 -2.59075,-6.22568 l 2.23612,-2.68925 -4.76776,-4.76776 -2.68925,2.23612 a 18.036716,18.036716 0 0 0 -6.22567,-2.59075 l -0.32508,-3.46746 h -6.73791 l -0.32507,3.46746 a 18.036716,18.036716 0 0 0 -6.22568,2.59075 l -2.68925,-2.23612 -4.76776,4.76776 2.23612,2.68925 a 18.036716,18.036716 0 0 0 -2.59075,6.22568 l -3.46746,0.32507 v 6.73791 l 3.46746,0.32508 a 17.957911,17.957911 0 0 0 2.59075,6.22567 l -2.23612,2.72865 4.76776,4.76777 2.68925,-2.23612 a 18.036716,18.036716 0 0 0 6.22568,2.55134 z m 3.69403,-8.60955 a 9.1217911,9.1217911 0 1 1 9.12179,-9.12179 9.1316418,9.1316418 0 0 1 -9.12179,9.12179 z"
       style="fill:#f0f0f0;stroke-width:0.985075"
       id="path26" />
    <path
       d="m 286.10717,357.87234 h 19.11045 l 0.92597,-9.85074 a 50.751045,50.751045 0 0 0 17.66238,-7.32896 l 7.63433,6.32418 13.49552,-13.52507 -6.35373,-7.62448 a 50.898806,50.898806 0 0 0 7.32896,-17.65254 l 9.85074,-0.92597 v -19.11045 l -9.85074,-0.92597 a 50.928358,50.928358 0 0 0 -7.32896,-17.64268 l 6.31433,-7.63433 -13.51522,-13.51523 -7.57523,6.31433 a 51.135224,51.135224 0 0 0 -17.64268,-7.3388 l -0.92597,-9.85075 h -19.11045 l -0.92597,9.85075 a 51.105672,51.105672 0 0 0 -17.65254,7.3388 l -7.63433,-6.31433 -13.53492,13.51523 6.32418,7.63433 a 50.751045,50.751045 0 0 0 -7.33881,17.64268 l -9.85075,0.92597 v 19.11045 l 9.85075,0.92597 a 50.731343,50.731343 0 0 0 7.33881,17.65254 l -6.32418,7.62448 13.51522,13.51522 7.63433,-6.32418 a 50.731343,50.731343 0 0 0 17.65254,7.33881 z m 9.55522,-34.27074 a 25.86806,25.86806 0 1 1 25.86806,-25.86806 25.86806,25.86806 0 0 1 -25.86806,25.90746 z"
       style="fill:#5e9fa2;fill-opacity:1;stroke-width:0.985075"
       id="path28" />
    <path
       d="m 338.81433,288.70806 -0.98508,-1.97014 a 12.865075,12.865075 0 0 0 -17.35701,-5.40806 l -4.61015,2.41343 a 12.884776,12.884776 0 0 0 -5.40806,17.36686 l 0.98508,1.9209 -3.21135,1.69433 11.57463,22.04597 33.79791,-17.73134 -11.57463,-22.05583 z m -7.05313,16.86448 2.0194,3.85164 -2.44299,1.29045 -2.0194,-3.85164 a 2.679403,2.679403 0 0 1 -2.25582,-1.40866 2.7286567,2.7286567 0 1 1 4.82686,-2.53164 2.6498508,2.6498508 0 0 1 -0.12805,2.64985 z m 1.97014,-14.16537 -17.22895,9.04298 -0.98508,-1.97014 a 7.1417911,7.1417911 0 0 1 3.00448,-9.62418 l 4.6003,-2.41344 a 7.1417911,7.1417911 0 0 1 9.62418,2.95523 z"
       style="fill:#f0f0f0;stroke-width:0.985075"
       id="path30" />
    <path
       d="m 128.66358,185.87632 0.7191,-2.04895 a 12.884776,12.884776 0 0 0 -7.91999,-16.37195 l -4.92538,-1.70417 a 12.874925,12.874925 0 0 0 -16.36209,7.9594 l -0.7191,2.0588 -3.418209,-1.19194 -8.17612,23.53344 36.063579,12.49074 8.16627,-23.53343 z m -17.1206,6.41284 -1.42835,4.07821 -2.61045,-0.90627 1.42836,-4.10776 a 2.6695522,2.6695522 0 0 1 -0.52209,-2.6006 2.73841,2.73841 0 1 1 5.17164,1.80268 2.6892537,2.6892537 0 0 1 -2.03911,1.73374 z m 11.71254,-8.28448 -18.38149,-6.35373 0.70925,-2.05881 a 7.1417911,7.1417911 0 0 1 9.07254,-4.39343 l 4.92537,1.70418 a 7.1319403,7.1319403 0 0 1 4.39344,9.07253 z"
       style="fill:#f0f0f0;stroke-width:0.985075"
       id="path32" />
    <path
       d="m 425.27433,160.06717 -2.10806,-0.66985 a 13.111343,13.111343 0 1 0 -11.61403,-3.69403 l -2.09821,-0.66985 a 12.185373,12.185373 0 0 0 -15.30806,7.88059 l -2.10806,6.63941 39.04836,12.40209 2.13761,-6.59015 a 12.175522,12.175522 0 0 0 -7.94955,-15.29821 z"
       style="fill:#e0e0e0;fill-opacity:1;stroke-width:0.985075"
       id="path34" />
    <path
       d="m 283.6797,41.099706 -1.31015,0.551642 a 8.4420896,8.4420896 0 1 0 -7.23044,3.04388 l -1.31015,0.551642 a 7.880597,7.880597 0 0 0 -4.19642,10.264478 l 1.73373,4.137313 24.32149,-10.225075 -1.74358,-4.127462 A 7.880597,7.880597 0 0 0 283.6797,41.099706 Z"
       style="fill:#f0f0f0;stroke-width:0.985075"
       id="path36" />
    <path
       d="m 107.65672,68.780303 -1.38896,-0.285672 A 8.4617911,8.4617911 0 1 0 98.584179,66.88896 l -1.388955,-0.285672 a 7.880597,7.880597 0 0 0 -9.279403,6.117313 l -0.916119,4.383582 25.818808,5.378508 0.91612,-4.383582 a 7.880597,7.880597 0 0 0 -6.07791,-9.318806 z"
       style="fill:#f0f0f0;stroke-width:0.985075"
       id="path38" />
    <g
       id="freepik--Shadow--inject-67"
       transform="matrix(0.98507463,0,0,0.98507463,15.547264,28.203188)">
      <ellipse
         id="freepik--path--inject-67"
         cx="250"
         cy="416.23999"
         rx="193.89"
         ry="11.32"
         style="fill:#f5f5f5" />
    </g>
    <g
       id="freepik--Plant--inject-67"
       transform="matrix(0.98507463,0,0,0.98507463,15.547264,28.203188)">
      <path
         d="m 398.56,376.19 c 0,0 -6.18,0.82 -8.82,0 -2.64,-0.82 -1.65,-12.8 -4.34,-13.05 -6.21,-0.57 -5.15,15.34 -2.51,18.69 2.64,3.35 16.23,1.93 16.23,1.93 z"
         style="fill:#5e9fa2"
         id="path224" />
      <path
         d="m 398.56,376.19 c 0,0 -6.18,0.82 -8.82,0 -2.64,-0.82 -1.65,-12.8 -4.34,-13.05 -6.21,-0.57 -5.15,15.34 -2.51,18.69 2.64,3.35 16.23,1.93 16.23,1.93 z"
         style="opacity:0.2;isolation:isolate;fill:#ffffff"
         id="path226" />
      <path
         d="m 399.07,404.4 c 0,0 -9.15,-81.24 1.77,-82.17 10.92,-0.93 13.56,27.71 9.34,81.14 z"
         style="fill:#5e9fa2"
         id="path228" />
      <path
         d="m 399.07,404.4 c 0,0 -9.15,-81.24 1.77,-82.17 10.92,-0.93 13.56,27.71 9.34,81.14 z"
         style="opacity:0.3;isolation:isolate;fill:#ffffff"
         id="path230" />
      <polygon
         points="422.17,394.57 419.17,417.55 389.24,417.55 386.24,394.57 "
         style="fill:#263238"
         id="polygon232" />
      <path
         d="m 409.92,348.86 c 0,0 10,0.53 10.25,0 0.25,-0.53 0.3,-12 4.52,-11.35 4.22,0.65 2.37,14.52 0,16.13 -2.37,1.61 -14.77,2.48 -14.77,2.48 0,0 -1.66,-5.12 0,-7.26 z"
         style="fill:#5e9fa2"
         id="path234" />
      <path
         d="m 409.92,348.86 c 0,0 10,0.53 10.25,0 0.25,-0.53 0.3,-12 4.52,-11.35 4.22,0.65 2.37,14.52 0,16.13 -2.37,1.61 -14.77,2.48 -14.77,2.48 0,0 -1.66,-5.12 0,-7.26 z"
         style="opacity:0.4;isolation:isolate;fill:#ffffff"
         id="path236" />
      <path
         d="m 403.61,397 c -2.21,-21.67 -4.61,-43.45 -4.06,-65.26 0.16,-1.67 0.27,-9.85 3.05,-8.6 a 2.66,2.66 0 0 1 0.79,1.12 35.1,35.1 0 0 1 1.6,8.11 c 2.1,21.72 1.94,43.58 1.83,65.37 -0.41,-21.77 -0.44,-43.61 -2.57,-65.28 -0.28,-2.65 -1.88,-14.28 -3.51,-5.29 a 95.13,95.13 0 0 0 -0.59,13.92 c 0.37,18.67 1.88,37.3 3.46,55.91 z"
         style="fill:#5e9fa2"
         id="path238" />
      <path
         d="m 411.17,351.59 c 2.92,-0.28 8.12,-0.46 10.62,-1.11 0,-3.43 1.21,-8.09 2.44,-11.74 -0.35,1.63 -0.69,4 -1,5.71 a 41.88,41.88 0 0 0 -0.72,6.24 c -0.16,0.49 -0.77,0.58 -1.16,0.68 a 45.27,45.27 0 0 1 -10.21,0.22 z"
         style="fill:#5e9fa2"
         id="path240" />
      <path
         d="m 411.17,354.24 c 4.17,-0.77 8.82,-1.07 12.91,-2.05 1.06,-1.68 1,-4.05 1.3,-6 0.24,-2.18 0.42,-4.37 0.63,-6.56 a 63.37,63.37 0 0 1 0,6.61 21.86,21.86 0 0 1 -0.9,5.8 1.6,1.6 0 0 1 -0.67,0.86 71.63,71.63 0 0 1 -13.24,1.34 z"
         style="fill:#5e9fa2"
         id="path242" />
      <path
         d="m 395.48,378.41 c -2.88,0.06 -5.86,0.2 -8.65,-0.76 a 3.65,3.65 0 0 1 -1.22,-2.36 28.69,28.69 0 0 1 -0.54,-5.52 48.24,48.24 0 0 1 0.19,-5.51 c 0.14,1.83 0.25,3.66 0.41,5.48 a 43.23,43.23 0 0 0 0.7,5.38 c 0.21,0.82 0.41,1.85 1.08,2 a 48.91,48.91 0 0 0 8,1.31 z"
         style="fill:#5e9fa2"
         id="path244" />
      <path
         d="m 383.42,365.71 0.65,6.39 c 0.4,2.79 0.33,5.83 1.44,8.41 a 2.45,2.45 0 0 0 0.57,0.32 c 3,1 6.27,1.07 9.4,1.44 a 44.71,44.71 0 0 1 -6.44,-0.13 c -1.48,-0.25 -4,-0.2 -4.51,-2 -1.24,-4.71 -1.17,-9.64 -1.11,-14.47 z"
         style="fill:#5e9fa2"
         id="path246" />
    </g>
    <g
       id="freepik--Icon--inject-67"
       transform="matrix(0.98507463,0,0,0.98507463,3.7313433,-51.398802)">
      <path
         d="m 361,139.57 a 23.65,23.65 0 0 1 32.25,-8.76 l -1,1.69 6.7,-1.82 -1.82,-6.7 -1,1.68 a 29.56,29.56 0 0 0 -36.92,45.14 l 4.46,-3.91 A 23.62,23.62 0 0 1 361,139.57 Z"
         style="fill:#263238"
         id="path249" />
      <path
         d="m 404,132.19 -4.5,3.81 a 23.63,23.63 0 0 1 -29.77,35.79 l 1,-1.69 -6.73,1.9 1.82,6.7 1,-1.69 A 29.57,29.57 0 0 0 404,132.19 Z"
         style="fill:#263238"
         id="path251" />
      <g
         style="opacity:0.6;isolation:isolate"
         id="g257">
        <path
           d="m 361,139.57 a 23.65,23.65 0 0 1 32.25,-8.76 l -1,1.69 6.7,-1.82 -1.82,-6.7 -1,1.68 a 29.56,29.56 0 0 0 -36.92,45.14 l 4.46,-3.91 A 23.62,23.62 0 0 1 361,139.57 Z"
           style="fill:#ffffff"
           id="path253" />
        <path
           d="m 404,132.19 -4.5,3.81 a 23.63,23.63 0 0 1 -29.77,35.79 l 1,-1.69 -6.73,1.9 1.82,6.7 1,-1.69 A 29.57,29.57 0 0 0 404,132.19 Z"
           style="fill:#ffffff"
           id="path255" />
      </g>
    </g>
    <g
       id="freepik--Padlock--inject-67"
       transform="matrix(0.98507463,0,0,0.98507463,3.7313433,-51.398802)">
      <path
         d="m 377.22,123.29 h -6.52 v -20 a 13.87,13.87 0 0 0 -27.74,0 v 20 h -6.52 v -20 a 20.39,20.39 0 0 1 40.78,0 z"
         style="fill:#263238"
         id="path260" />
      <g
         style="opacity:0.3"
         id="g264">
        <path
           d="m 377.22,123.29 h -6.52 v -20 a 13.87,13.87 0 0 0 -27.74,0 v 20 h -6.52 v -20 a 20.39,20.39 0 0 1 40.78,0 z"
           style="fill:#ffffff"
           id="path262" />
      </g>
      <path
         d="m 384.69,118.2 v 32.73 a 3.8,3.8 0 0 1 -3.8,3.8 h -48.14 a 3.79,3.79 0 0 1 -3.78,-3.8 V 118.2 a 3.79,3.79 0 0 1 3.78,-3.8 h 48.14 a 3.65,3.65 0 0 1 1.8,0.46 3.77,3.77 0 0 1 2,3.34 z"
         style="fill:#5e9fa2"
         id="path266" />
      <path
         d="m 382.69,114.86 v 32.07 a 3.79,3.79 0 0 1 -3.8,3.79 h -48.14 a 3.7,3.7 0 0 1 -1.78,-0.45 V 118.2 a 3.79,3.79 0 0 1 3.78,-3.8 h 48.14 a 3.65,3.65 0 0 1 1.8,0.46 z"
         style="opacity:0.2;isolation:isolate;fill:#ffffff"
         id="path268" />
      <path
         d="m 364,130.46 a 7.17,7.17 0 1 0 -9.67,6.82 L 354,146 h 5.73 l -0.85,-8.55 a 7.27,7.27 0 0 0 5.12,-6.99 z"
         style="opacity:0.5"
         id="path270" />
    </g>
    <g
       id="freepik--speech-bubble--inject-67"
       transform="matrix(0.98507463,0,0,0.98507463,3.7313433,-51.398802)">
      <polygon
         points="130.69,150.24 134,139.57 127.37,139.57 "
         style="fill:#5e9fa2"
         id="polygon273" />
      <rect
         x="94.949997"
         y="114.08"
         width="71.470001"
         height="28.75"
         rx="8.7201519"
         style="fill:#5e9fa2"
         id="rect275"
         ry="8.7201519" />
      <path
         d="m 111.75,128.44 1.88,1.06 -0.49,0.86 -1.91,-1.12 v 2.15 h -1 v -2.15 l -1.91,1.12 -0.49,-0.86 1.9,-1.06 -1.9,-1 0.49,-0.88 1.91,1.12 v -2.18 h 1 v 2.13 l 1.91,-1.12 0.49,0.88 z"
         style="fill:#ffffff"
         id="path277" />
      <path
         d="m 118.39,128.44 1.88,1.06 -0.49,0.86 -1.91,-1.12 v 2.15 h -0.94 v -2.15 l -1.93,1.12 -0.49,-0.86 1.9,-1.06 -1.9,-1 0.49,-0.88 1.91,1.12 v -2.18 h 0.94 v 2.13 l 1.91,-1.12 0.49,0.88 z"
         style="fill:#ffffff"
         id="path279" />
      <path
         d="m 125,128.44 1.88,1.06 -0.49,0.86 -1.91,-1.12 v 2.15 h -1 v -2.15 l -1.91,1.12 -0.49,-0.86 1.89,-1.06 -1.89,-1 0.49,-0.88 1.91,1.12 v -2.13 h 1 v 2.13 l 1.91,-1.12 0.49,0.88 z"
         style="fill:#ffffff"
         id="path281" />
      <path
         d="m 131.67,128.44 1.88,1.06 -0.49,0.86 -1.91,-1.12 v 2.15 h -0.95 v -2.15 l -1.91,1.12 -0.49,-0.86 1.89,-1.06 -1.89,-1 0.49,-0.88 1.91,1.12 v -2.13 h 0.95 v 2.13 l 1.91,-1.12 0.49,0.88 z"
         style="fill:#ffffff"
         id="path283" />
      <path
         d="m 138.31,128.44 1.88,1.06 -0.49,0.86 -1.92,-1.12 v 2.15 h -1 v -2.15 l -1.78,1.12 -0.5,-0.86 1.9,-1.06 -1.9,-1 0.5,-0.88 1.91,1.12 v -2.13 h 1 v 2.13 l 1.92,-1.12 0.49,0.88 z"
         style="fill:#ffffff"
         id="path285" />
      <path
         d="m 144.94,128.44 1.89,1.06 -0.49,0.86 -1.92,-1.12 v 2.15 h -0.95 v -2.15 l -1.92,1.12 -0.49,-0.86 1.9,-1.06 -1.9,-1 0.49,-0.88 1.92,1.12 v -2.13 h 0.95 v 2.13 l 1.92,-1.12 0.49,0.88 z"
         style="fill:#ffffff"
         id="path287" />
      <path
         d="m 151.58,128.44 1.88,1.06 -0.49,0.86 -1.91,-1.12 v 2.15 h -1 v -2.15 l -1.91,1.12 -0.49,-0.86 1.9,-1.06 -1.9,-1 0.49,-0.88 1.91,1.12 v -2.18 h 1 v 2.13 l 1.91,-1.12 0.49,0.88 z"
         style="fill:#ffffff"
         id="path289" />
    </g>
    <g
       id="freepik--Character--inject-67"
       transform="matrix(0.98507463,0,0,0.98507463,15.547264,28.203188)">
      <path
         d="m 174.07,214.07 6.1,-3.95 -6.87,-4.22 c 0,0 -5.23,3.85 -3.13,6.46 z"
         style="fill:#b55b52"
         id="path292" />
      <polygon
         points="176.16,202.01 173.3,205.9 180.17,210.12 183.3,203.63 "
         style="fill:#b55b52"
         id="polygon294" />
      <path
         d="m 149,201.25 c 3.86,5.84 7.73,12.94 13,17.49 0.1,0.08 0.06,0 -0.33,0 -0.2,0.05 -0.1,0.15 0.31,0 a 10.69,10.69 0 0 0 3.11,-2.68 51.65,51.65 0 0 0 5.2,-7.59 c 0.07,-0.11 0,0 0,0.12 a 2,2 0 0 0 0,0.55 c 0.09,0.09 -0.23,-0.17 0.39,1.2 a 2.66,2.66 0 0 0 2.73,1.13 2.44,2.44 0 0 0 1.59,-1.15 c 0,0 0,0 0,0 a 4.3,4.3 0 0 0 -0.42,0.59 L 170.1,209 a 4,4 0 0 1 0.76,-1.75 2.66,2.66 0 0 1 1.37,-0.82 2.69,2.69 0 0 1 2.75,1.14 c 0.62,1.38 0.31,1.12 0.4,1.22 a 3.69,3.69 0 0 1 -0.09,0.95 c -1.57,6.67 -5.67,17.66 -14.17,17.72 -6,-0.55 -10.55,-7.14 -13.92,-11.3 a 103.24,103.24 0 0 1 -6.6,-10 l 8.35,-4.9 z"
         style="fill:#b55b52"
         id="path296" />
      <path
         d="m 145.92,196.86 c 4,1.32 12.11,19.75 12.11,19.75 l -13.78,6.54 c 0,0 -2.8,-14.48 -2.25,-19.15 a 11,11 0 0 1 3.92,-7.14 z"
         style="fill:#5e9fa2"
         id="path298" />
      <path
         d="m 145.92,196.86 c 4,1.32 12.11,19.75 12.11,19.75 l -13.78,6.54 c 0,0 -2.8,-14.48 -2.25,-19.15 a 11,11 0 0 1 3.92,-7.14 z"
         style="opacity:0.7;fill:#ffffff"
         id="path300" />
      <polygon
         points="160.75,401.59 162.12,410.53 155.1,412.52 153.43,401.59 152.53,395.75 159.55,393.76 "
         style="fill:#b55b52"
         id="polygon302" />
      <polygon
         points="121.7,401.59 121.76,411.1 114.52,412.06 114.45,401.59 114.4,395.08 121.65,394.14 "
         style="fill:#b55b52"
         id="polygon304" />
      <polygon
         points="121.7,401.59 114.45,401.59 114.4,395.08 121.65,394.14 "
         style="opacity:0.2"
         id="polygon306" />
      <polygon
         points="153.43,401.59 152.53,395.75 159.55,393.76 160.75,401.59 "
         style="opacity:0.2"
         id="polygon308" />
      <path
         d="m 162,409.43 -8,-0.21 a 0.64,0.64 0 0 0 -0.64,0.48 l -1.67,6.42 a 1,1 0 0 0 1,1.32 c 2.88,0 7,0 10.65,0.07 4.23,0.12 6.92,-0.09 11.88,0 3,0.08 3.93,-2.91 2.69,-3.22 -5.67,-1.4 -9.37,-1.12 -14.2,-4.28 A 3.34,3.34 0 0 0 162,409.43 Z"
         style="fill:#263238"
         id="path310" />
      <path
         d="m 162.61,410.32 a 0.17,0.17 0 0 1 0.09,-0.18 c 0.34,-0.16 3.33,-1.57 4.2,-1.05 a 0.54,0.54 0 0 1 0.27,0.47 1,1 0 0 1 -0.36,0.83 c -0.82,0.68 -2.9,0.34 -4.07,0.07 v 0 a 0.16,0.16 0 0 1 -0.13,-0.14 z m 0.71,-0.08 c 1.61,0.31 2.81,0.27 3.27,-0.12 a 0.6,0.6 0 0 0 0.23,-0.54 0.2,0.2 0 0 0 -0.1,-0.19 h -0.06 c -0.55,-0.23 -2.16,0.33 -3.34,0.85 z"
         style="fill:#5e9fa2"
         id="path312" />
      <path
         d="m 162.67,410.43 a 0.14,0.14 0 0 1 -0.06,-0.15 4.87,4.87 0 0 1 1.23,-2.77 1.24,1.24 0 0 1 1,-0.27 c 0.47,0.06 0.6,0.3 0.63,0.5 0.1,0.82 -1.7,2.35 -2.6,2.72 a 0.24,0.24 0 0 1 -0.12,0 z m 2.09,-2.85 a 0.93,0.93 0 0 0 -0.71,0.2 4,4 0 0 0 -1,2.21 c 0.92,-0.51 2.15,-1.71 2.08,-2.21 0,0 0,-0.11 -0.15,-0.16 z"
         style="fill:#5e9fa2"
         id="path314" />
      <path
         d="m 121.47,409.43 -8,-0.21 a 0.64,0.64 0 0 0 -0.64,0.48 l -1.68,6.42 a 1.05,1.05 0 0 0 1,1.32 c 2.87,0 7,0 10.65,0.07 4.23,0.12 6.91,-0.09 11.87,0 3,0.08 3.94,-2.91 2.69,-3.22 -5.66,-1.4 -9.37,-1.12 -14.19,-4.28 a 3.37,3.37 0 0 0 -1.7,-0.58 z"
         style="fill:#263238"
         id="path316" />
      <path
         d="m 122,410.32 a 0.17,0.17 0 0 1 0.1,-0.18 c 0.34,-0.16 3.32,-1.57 4.19,-1.05 a 0.54,0.54 0 0 1 0.27,0.47 1,1 0 0 1 -0.35,0.83 c -0.83,0.68 -2.91,0.34 -4.08,0.07 v 0 A 0.18,0.18 0 0 1 122,410.32 Z m 0.72,-0.08 c 1.6,0.31 2.81,0.27 3.27,-0.12 a 0.62,0.62 0 0 0 0.23,-0.54 0.22,0.22 0 0 0 -0.11,-0.19 h -0.06 c -0.5,-0.23 -2.11,0.33 -3.29,0.85 z"
         style="fill:#5e9fa2"
         id="path318" />
      <path
         d="m 122.11,410.43 a 0.15,0.15 0 0 1 -0.07,-0.15 4.9,4.9 0 0 1 1.24,-2.77 1.23,1.23 0 0 1 1,-0.27 c 0.47,0.06 0.6,0.3 0.62,0.5 0.11,0.82 -1.7,2.35 -2.59,2.72 a 0.29,0.29 0 0 1 -0.13,0 z m 2.09,-2.85 a 0.92,0.92 0 0 0 -0.71,0.2 4.08,4.08 0 0 0 -1,2.21 c 0.92,-0.51 2.15,-1.71 2.09,-2.21 a 0.21,0.21 0 0 0 -0.16,-0.16 0.61,0.61 0 0 0 -0.22,-0.04 z"
         style="fill:#5e9fa2"
         id="path320" />
      <path
         d="m 106.83,252 c -3.84,16.62 2.74,147.39 2.74,147.39 h 12.72 l 5.44,-109 20,109 13.6,-1 C 152.44,313.97 144.59,263.57 144.59,263.57 v -6.37 z"
         style="fill:#263238"
         id="path322" />
      <path
         d="m 161.35,398.37 -13.6,1 -15.75,-85.8 -4.26,-23.19 -5.44,109 h -12.72 c 0,0 -6.58,-130.79 -2.75,-147.38 l 37.8,5.21 v 6.37 c 0,0 7.83,50.42 16.72,134.79 z"
         style="opacity:0.2;fill:#ffffff"
         id="path324" />
      <path
         d="m 106,195.79 a 160.19,160.19 0 0 1 2.23,23.74 c 0.13,5.55 0,10.83 -0.19,15.61 -0.5,11.21 -1.58,19.69 -1.53,22.6 l 38.16,0.68 c 9.1,-39.9 1.28,-61.56 1.28,-61.56 a 75.92,75.92 0 0 0 -9,-1.92 q -1,-0.13 -2,-0.24 a 141.37,141.37 0 0 0 -16.22,-0.3 c -1,0 -2.07,0.09 -3.08,0.17 -5.1,0.43 -9.65,1.22 -9.65,1.22 z"
         style="fill:#5e9fa2"
         id="path326" />
      <path
         d="m 136.19,196 c 0,0 -2.27,3.29 -4.09,3.52 -2.58,0.35 -12,-5.42 -12,-5.42 2.18,-1.61 3.25,-5.12 3.72,-8.83 a 50.34,50.34 0 0 0 0.19,-9.07 l 8.81,9.58 c -1.16,3 -1.85,6.2 0.43,8.45 v 0 a 7.88,7.88 0 0 0 2.94,1.77 z"
         style="fill:#b55b52"
         id="path328" />
      <path
         d="m 133.23,194.2 a 25.11,25.11 0 0 1 -9.43,-9 50.34,50.34 0 0 0 0.19,-9.07 l 8.81,9.58 c -1.16,3.03 -1.8,6.29 0.43,8.49 z"
         style="opacity:0.2"
         id="path330" />
      <path
         d="m 143,167.56 c 0.75,2.77 0,8.39 -3.72,6.39 -3.72,-2 2.47,-11.17 3.72,-6.39 z"
         style="fill:#263238"
         id="path332" />
      <path
         d="m 123.12,170.41 c -0.73,7 -1.51,11.1 1.42,15.23 4.42,6.2 13.57,4.35 16.38,-2.34 2.54,-6 3.3,-16.5 -3.07,-20.34 a 9.75,9.75 0 0 0 -14.73,7.45 z"
         style="fill:#b55b52"
         id="path334" />
      <path
         d="m 128.22,166.79 0.35,-7.87 c 0,0 -8.36,-1 -8.17,3.32 -4.74,2.1 -2.86,9.41 3.22,13.22 3.54,-2.58 3.43,-9.19 3.43,-9.19 0.36,0.18 0.76,0.35 1.17,0.52 z"
         style="fill:#263238"
         id="path336" />
      <path
         d="m 119.47,175.76 a 6.63,6.63 0 0 0 2.64,4.38 c 1.9,1.38 3.69,-0.14 3.85,-2.36 0.15,-2 -0.66,-5.13 -2.9,-5.63 a 3.06,3.06 0 0 0 -3.59,3.61 z"
         style="fill:#b55b52"
         id="path338" />
      <path
         d="m 133.39,174 c -0.1,0.57 0.13,1.07 0.5,1.13 0.37,0.06 0.75,-0.35 0.84,-0.92 0.09,-0.57 -0.13,-1.07 -0.5,-1.13 -0.37,-0.06 -0.75,0.35 -0.84,0.92 z"
         style="fill:#263238"
         id="path340" />
      <path
         d="m 139.81,175 c -0.09,0.57 0.14,1.08 0.51,1.13 0.37,0.05 0.75,-0.35 0.84,-0.92 0.09,-0.57 -0.13,-1.07 -0.5,-1.13 -0.37,-0.06 -0.75,0.36 -0.85,0.92 z"
         style="fill:#263238"
         id="path342" />
      <path
         d="m 137.72,175 a 20,20 0 0 0 2,5.1 3.42,3.42 0 0 1 -2.78,0 z"
         style="fill:#a02724"
         id="path344" />
      <path
         d="m 133.53,181.8 a 4.89,4.89 0 0 0 0.73,0.17 0.17,0.17 0 0 0 0.19,-0.14 0.17,0.17 0 0 0 -0.14,-0.2 4.54,4.54 0 0 1 -3.38,-2.32 0.16,0.16 0 0 0 -0.22,-0.09 0.17,0.17 0 0 0 -0.09,0.22 4.71,4.71 0 0 0 2.91,2.36 z"
         style="fill:#263238"
         id="path346" />
      <path
         d="m 131.75,171.62 a 0.32,0.32 0 0 0 0.33,-0.08 2.76,2.76 0 0 1 2.33,-0.78 0.3335416,0.3335416 0 1 0 0.15,-0.65 3.34,3.34 0 0 0 -2.94,0.95 0.34,0.34 0 0 0 0,0.48 0.37,0.37 0 0 0 0.13,0.08 z"
         style="fill:#263238"
         id="path348" />
      <path
         d="m 143,173.23 a 0.31,0.31 0 0 0 0.19,0 0.34,0.34 0 0 0 0.23,-0.42 3.31,3.31 0 0 0 -2.09,-2.25 0.35,0.35 0 0 0 -0.42,0.23 0.34,0.34 0 0 0 0.23,0.42 2.55,2.55 0 0 1 1.63,1.8 0.34,0.34 0 0 0 0.23,0.22 z"
         style="fill:#263238"
         id="path350" />
      <path
         d="m 120.4,162.24 c 0,0 -4.32,-4.29 10.34,-3.9 14.66,0.39 17.1,8.61 10.38,10.52 l -0.3,-1.34 a 9.12,9.12 0 0 1 -7.52,0.38 l 1.06,-0.66 c 0,0 -10.01,1.02 -13.96,-5 z"
         style="fill:#263238"
         id="path352" />
      <path
         d="m 132.1,199.49 c 0,0 -1.87,2.16 -4,4.29 -3.11,-1.57 -10.39,-5.78 -10,-9.67 0.43,-1.13 3.39,-1.85 3.39,-1.85 0,0 3.14,4.19 10.61,7.23 z"
         style="fill:#5e9fa2"
         id="path354" />
      <path
         d="m 132.1,199.49 a 20.73,20.73 0 0 1 4,4.29 c 2.29,-1.48 1.14,-8.72 0.3,-9.52 a 8.17,8.17 0 0 0 -3.95,-1 6.68,6.68 0 0 1 -0.35,6.23 z"
         style="fill:#5e9fa2"
         id="path356" />
      <g
         style="opacity:0.5"
         id="g362">
        <path
           d="m 132.1,199.49 c 0,0 -1.87,2.16 -4,4.29 -3.11,-1.57 -10.39,-5.78 -10,-9.67 0.43,-1.13 3.39,-1.85 3.39,-1.85 0,0 3.14,4.19 10.61,7.23 z"
           style="fill:#ffffff"
           id="path358" />
        <path
           d="m 132.1,199.49 a 20.73,20.73 0 0 1 4,4.29 c 2.29,-1.48 1.14,-8.72 0.3,-9.52 a 8.17,8.17 0 0 0 -3.95,-1 6.68,6.68 0 0 1 -0.35,6.23 z"
           style="fill:#ffffff"
           id="path360" />
      </g>
      <path
         d="m 132,313.57 -4.26,-23.19 0.82,-12.27 c 0,0 5.83,21.28 3.44,35.46 z"
         style="opacity:0.2"
         id="path364" />
      <path
         d="m 110,206.38 c -3.7,6.17 -9.43,15 -12.57,21.27 -1.67,3.55 -2.19,7.35 -3.1,11.18 -0.87,4.09 -1.74,8.26 -2.7,12.38 l -4.78,-0.42 c -0.17,-4.33 -0.13,-8.62 0.13,-12.95 0.33,-4.51 0.57,-9.38 2.27,-13.66 3.38,-8.23 7.83,-15.59 12.6,-23 l 8.15,5.22 z"
         style="fill:#b55b52"
         id="path366" />
      <path
         d="m 106,195.79 c -5.37,1.39 -15,20.69 -15,20.69 l 11.41,7.39 10.29,-10 a 24.73,24.73 0 0 0 -0.65,-10.85 C 110.38,197 106,195.79 106,195.79 Z"
         style="fill:#5e9fa2"
         id="path368" />
      <path
         d="m 106,195.79 c -5.37,1.39 -15,20.69 -15,20.69 l 11.41,7.39 10.29,-10 a 24.73,24.73 0 0 0 -0.65,-10.85 C 110.38,197 106,195.79 106,195.79 Z"
         style="opacity:0.7;fill:#ffffff"
         id="path370" />
      <path
         d="m 95.58,209.63 h 115.54 a 4.74,4.74 0 0 1 4.74,4.74 V 217 a 4.74,4.74 0 0 1 -4.74,4.74 H 95.58 Z"
         transform="rotate(-46.68,155.71548,215.69238)"
         style="fill:#263238"
         id="path372" />
      <path
         d="m 95.58,209.63 h 115.54 a 4.74,4.74 0 0 1 4.74,4.74 V 217 a 4.74,4.74 0 0 1 -4.74,4.74 H 95.58 Z"
         transform="rotate(-46.68,155.71548,215.69238)"
         style="opacity:0.6;isolation:isolate;fill:#ffffff"
         id="path374" />
      <path
         d="m 196.6,171.59 1.33,1.25 a 4.73,4.73 0 0 1 0.2,6.69 l -79.27,84.07 -1.32,-1.25 79.27,-84.07 a 4.73,4.73 0 0 0 -0.21,-6.69 z"
         style="opacity:0.2"
         id="path376" />
      <polygon
         points="193.7,180.4 171.31,204.14 186,218 187.91,215.97 186.01,214.18 189.03,210.97 187.92,209.92 192.46,205.11 193.57,206.16 196.41,203.15 198.31,204.95 200.28,202.85 199.17,201.8 202.01,198.78 199.78,196.68 201.64,194.71 204.99,197.86 208.39,194.26 "
         style="fill:#263238"
         id="polygon378" />
      <polygon
         points="193.7,180.4 171.31,204.14 186,218 187.91,215.97 186.01,214.18 189.03,210.97 187.92,209.92 192.46,205.11 193.57,206.16 196.41,203.15 198.31,204.95 200.28,202.85 199.17,201.8 202.01,198.78 199.78,196.68 201.64,194.71 204.99,197.86 208.39,194.26 "
         style="opacity:0.6;isolation:isolate;fill:#ffffff"
         id="polygon380" />
      <g
         style="opacity:0.2"
         id="g392">
        <rect
           x="184.91"
           y="215.45"
           width="2.78"
           height="1.8200001"
           transform="rotate(-46.68,186.3078,216.37108)"
           style="opacity:0.6;isolation:isolate"
           id="rect382" />
        <polygon
           points="184.68,212.93 187.71,209.72 186.59,208.67 191.13,203.85 192.25,204.91 195.08,201.9 196.41,203.15 193.57,206.16 192.46,205.1 187.92,209.92 189.03,210.97 186.01,214.18 "
           style="opacity:0.6;isolation:isolate"
           id="polygon384" />
        <polygon
           points="200.69,197.53 202.02,198.78 199.17,201.8 200.29,202.85 198.31,204.95 196.99,203.7 198.96,201.6 197.84,200.54 "
           style="opacity:0.6;isolation:isolate"
           id="polygon386" />
        <rect
           x="198.69"
           y="194.14999"
           width="2.71"
           height="1.8200001"
           transform="rotate(-46.68,200.0483,195.07106)"
           style="opacity:0.6;isolation:isolate"
           id="rect388" />
        <rect
           x="203.55"
           y="194.52"
           width="4.96"
           height="1.8200001"
           transform="rotate(-46.68,206.04454,195.44545)"
           style="opacity:0.6;isolation:isolate"
           id="rect390" />
      </g>
      <rect
         x="161.47"
         y="182.56"
         width="37.540001"
         height="14.24"
         rx="1.0760605"
         transform="rotate(-46.68,180.24227,189.6862)"
         style="fill:#263238"
         id="rect394"
         ry="1.0760605" />
      <path
         d="m 119.32,290.77 v 0 a 20.47,20.47 0 0 1 -28.94,0.85 l -6.64,-6.26 a 20.47,20.47 0 0 1 -0.85,-28.94 v 0 a 20.48,20.48 0 0 1 29,-0.85 l 6.63,6.26 a 20.47,20.47 0 0 1 0.8,28.94 z"
         style="fill:#263238"
         id="path396" />
      <path
         d="m 111.69,283.57 v 0 A 10.19,10.19 0 0 1 97.28,284 L 91,278 a 10.19,10.19 0 0 1 -0.42,-14.41 v 0 a 10.17,10.17 0 0 1 14.4,-0.42 l 6.34,6 a 10.19,10.19 0 0 1 0.37,14.4 z"
         style="fill:#ffffff"
         id="path398" />
      <rect
         x="161.47"
         y="182.56"
         width="37.540001"
         height="14.24"
         rx="1.0760605"
         transform="rotate(-46.68,180.24227,189.6862)"
         style="opacity:0.5;isolation:isolate;fill:#ffffff"
         id="rect400"
         ry="1.0760605" />
      <g
         style="opacity:0.5;isolation:isolate"
         id="g406">
        <path
           d="m 119.32,290.77 v 0 a 20.47,20.47 0 0 1 -28.94,0.85 l -6.64,-6.26 a 20.47,20.47 0 0 1 -0.85,-28.94 v 0 a 20.48,20.48 0 0 1 29,-0.85 l 6.63,6.26 a 20.47,20.47 0 0 1 0.8,28.94 z"
           style="fill:#ffffff"
           id="path402" />
        <path
           d="m 111.69,283.57 v 0 A 10.19,10.19 0 0 1 97.28,284 L 91,278 a 10.19,10.19 0 0 1 -0.42,-14.41 v 0 a 10.17,10.17 0 0 1 14.4,-0.42 l 6.34,6 a 10.19,10.19 0 0 1 0.37,14.4 z"
           style="fill:#ffffff"
           id="path404" />
      </g>
      <path
         d="m 194.87,177.68 2.66,2.5 a 1.06,1.06 0 0 1 0,1.51 l -24.3,25.76 a 1.05,1.05 0 0 1 -1.5,0 l -2.65,-2.5 a 1.06,1.06 0 0 0 1.49,0 l 24.3,-25.77 a 1.05,1.05 0 0 0 0,-1.5 z"
         style="opacity:0.2"
         id="path408" />
      <g
         style="opacity:0.2"
         id="g414">
        <path
           d="m 103,261.32 2,1.87 A 10.2,10.2 0 0 0 91,278 l -2,-1.88 a 10.197167,10.197167 0 0 1 14,-14.83 z"
           id="path410" />
        <path
           d="m 116.49,260 2,1.88 a 20.48,20.48 0 0 1 -28.1,29.79 l -2,-1.87 a 20.48,20.48 0 0 0 28.1,-29.8 z"
           id="path412" />
      </g>
      <g
         style="opacity:0.2"
         id="g420">
        <path
           d="m 103,261.32 2,1.87 A 10.2,10.2 0 0 0 91,278 l -2,-1.88 a 10.197167,10.197167 0 0 1 14,-14.83 z"
           id="path416" />
        <path
           d="m 103,261.32 2,1.87 A 10.2,10.2 0 0 0 91,278 l -2,-1.88 a 10.197167,10.197167 0 0 1 14,-14.83 z"
           id="path418" />
      </g>
      <polygon
         points="95.13,260.37 94.31,255 85.35,256.81 87.78,262.21 "
         style="fill:#b55b52"
         id="polygon422" />
      <path
         d="m 87.06,249.78 -1.71,7 9,-1.81 c 0,0 0.12,-6.29 -3.22,-6.7 z"
         style="fill:#b55b52"
         id="path424" />
    </g>
  </g>
</svg>
