<svg width="273" height="316" viewBox="0 0 273 316" fill="none" xmlns="http://www.w3.org/2000/svg">
<path d="M1.1739 159C-0.391301 157.216 -0.391301 154.326 1.1739 152.542L133.666 1.6083C135.231 -0.174772 137.769 -0.174772 139.334 1.6083L271.826 152.542C273.391 154.326 273.391 157.216 271.826 159L139.334 309.934C137.769 311.717 135.231 311.717 133.666 309.934L1.1739 159Z" fill="#0BCA89"/>
<path d="M55.347 214.863C52.2177 210.796 52.2177 204.204 55.347 200.137L130.834 102.05C133.963 97.9834 139.037 97.9834 142.166 102.05L217.653 200.137C220.782 204.204 220.782 210.796 217.653 214.863L142.166 312.95C139.037 317.017 133.963 317.017 130.834 312.95L55.347 214.863Z" fill="#F8F8F8"/>
<path d="M69.5848 236.5C68.8051 235.611 68.8051 232.78 69.5848 231.891L135.588 156.667C136.368 155.778 137.632 155.778 138.412 156.667L204.415 231.891C205.195 232.78 205.195 234.611 204.415 235.5L138.412 310.333C137.632 311.222 134.78 310.889 134 310L69.5848 236.5Z" fill="#1DAE79"/>
</svg>
